<svg version="1.2" xmlns="http://www.w3.org/2000/svg" viewBox="0 0 32 32" width="32" height="32">
    <path d="m24.5 30.9h-6.9v-9.6h1.1c0.2 0 0.4-0.1 0.5-0.4l1.3-4.2 0.8-2.7q0-0.1 0-0.1v-7c0-0.3-0.2-0.5-0.5-0.5v-5.3c0-0.3-0.3-0.6-0.5-0.6h-1.6c0-0.3-0.3-0.5-0.6-0.5h-4.2c-0.3 0-0.6 0.2-0.6 0.5h-1.6c-0.3 0-0.5 0.3-0.5 0.6v5.3c-0.3 0-0.5 0.2-0.5 0.5v7q0 0.1 0 0.1l0.1 0.5q0 0.1 0 0.1l0.7 2.1q0 0 0 0l0.7 2.1 0.6 2.1c0.1 0.3 0.3 0.4 0.5 0.4h1.1v9.6h-6.9c-0.3 0-0.6 0.2-0.6 0.6 0 0.2 0.3 0.5 0.6 0.5h7.4 2.2 7.4c0.3 0 0.6-0.3 0.6-0.5 0-0.4-0.3-0.6-0.6-0.6zm-4.8-29.3v4.8h-1-1.1v-1.1h0.5c0.3 0 0.6-0.2 0.6-0.5v-3.2zm-6.4 17.6h1c0.3 0 0.6-0.3 0.6-0.5 0-0.3-0.3-0.6-0.6-0.6h-1.3l-0.4-1h1.7c0.3 0 0.6-0.3 0.6-0.6 0-0.3-0.3-0.5-0.6-0.5h-2l-0.3-1.1h2.3c0.3 0 0.6-0.2 0.6-0.5 0-0.3-0.3-0.5-0.6-0.5h-2.6v-0.1-1h2.6c0.3 0 0.6-0.3 0.6-0.5 0-0.3-0.3-0.6-0.6-0.6h-2.6v-4.2h1.1c0.2 1.5 1.5 2.6 3.1 2.6 1.6 0 2.9-1.1 3.2-2.6h1.1v4.2h-2.7c-0.3 0-0.5 0.3-0.5 0.6 0 0.2 0.2 0.5 0.5 0.5h2.7v1 0.1h-2.7c-0.3 0-0.5 0.2-0.5 0.5 0 0.3 0.2 0.5 0.5 0.5h2.3l-0.3 1.1h-2c-0.3 0-0.5 0.2-0.5 0.5 0 0.3 0.2 0.6 0.5 0.6h1.7l-0.3 1h-1.4c-0.3 0-0.5 0.3-0.5 0.6 0 0.2 0.2 0.5 0.5 0.5h1l-0.3 1.1h-4.6zm4.2-18.2v3.2h-0.5c-0.3 0-0.5 0.3-0.5 0.6v1.6h-1.1v-1.6c0-0.3-0.2-0.6-0.5-0.6h-0.6v-3.2zm-5.3 0.6h1.1v3.2c0 0.3 0.2 0.5 0.5 0.5h0.5v1.1h-1-1.1zm2.7 5.8h2.1 1c-0.2 1-1.1 1.6-2.1 1.6-1 0-1.8-0.6-2-1.6zm0.5 13.9h1.1v9.6h-1.1z"/>
</svg>