<svg version="1.2" xmlns="http://www.w3.org/2000/svg" viewBox="0 0 100 100" width="100" height="100">
    <path  d="m76.6 96.6h-21.6v-30h3.3c0.7 0 1.4-0.5 1.6-1.2l4.1-13.3q0 0 0 0l2.5-8.3q0.1-0.3 0.1-0.5v-21.7c0-0.9-0.7-1.6-1.7-1.6v-16.7c0-0.9-0.7-1.6-1.6-1.6h-5c0-1-0.8-1.7-1.7-1.7h-13.3c-0.9 0-1.7 0.7-1.7 1.7h-5c-0.9 0-1.6 0.7-1.6 1.6v16.7c-0.9 0-1.7 0.7-1.7 1.6v21.7q0 0.3 0.1 0.5l0.5 1.6q0 0.1 0 0.1l2 6.6q0 0 0.1 0l2 6.7 2 6.6c0.3 0.7 0.9 1.2 1.6 1.2h3.4v30h-21.7c-0.9 0-1.6 0.7-1.6 1.7 0 0.9 0.7 1.6 1.6 1.6h23.3q0 0 0 0h6.7q0 0 0 0h23.3c0.9 0 1.7-0.7 1.7-1.6 0-1-0.8-1.7-1.7-1.7zm-15-91.6v15h-3.3-3.3v-3.3h1.6c0.9 0 1.7-0.8 1.7-1.7v-10zm-15 18.3h6.7 3.1c-0.8 2.9-3.4 5-6.5 5-3.1 0-5.7-2.1-6.4-5zm8.3-20v10h-1.7c-0.9 0-1.6 0.8-1.6 1.7v5h-3.4v-5c0-0.9-0.7-1.7-1.6-1.7h-1.7v-10zm-16.6 1.7h3.3v10c0 0.9 0.7 1.7 1.7 1.7h1.6v3.3h-3.3-3.3zm3.5 54.9h3.1c0.9 0 1.7-0.7 1.7-1.6 0-0.9-0.8-1.7-1.7-1.7h-4.1l-1.1-3.3h5.2c0.9 0 1.7-0.8 1.7-1.7 0-0.9-0.8-1.7-1.7-1.7h-6.2l-1-3.3h7.2c0.9 0 1.7-0.7 1.7-1.6 0-1-0.8-1.7-1.7-1.7h-8.2l-0.1-0.3v-3h8.3c0.9 0 1.7-0.8 1.7-1.7 0-0.9-0.8-1.7-1.7-1.7h-8.3v-13.3h3.5c0.8 4.7 4.9 8.3 9.8 8.3 5 0 9.1-3.6 9.9-8.3h3.4v13.3h-8.3c-0.9 0-1.7 0.8-1.7 1.7 0 0.9 0.8 1.7 1.7 1.7h8.3v3 0.3h-8.3c-0.9 0-1.7 0.7-1.7 1.7 0 0.9 0.8 1.6 1.7 1.6h7.2l-1 3.3h-6.2c-0.9 0-1.7 0.8-1.7 1.7 0 0.9 0.8 1.7 1.7 1.7h5.2l-1 3.3h-4.2c-0.9 0-1.7 0.8-1.7 1.7 0 0.9 0.8 1.6 1.7 1.6h3.1l-1 3.4h-14.2zm6.5 6.6h3.3v30h-3.3z"/>
</svg>