<svg version="1.2" xmlns="http://www.w3.org/2000/svg" viewBox="0 0 32 32" width="32" height="32">
    <path fill="#ffe100" d="m21.1 19.1v-14.3c0-2.3-2-4.3-4.3-4.3 1.8 0 3.3 2 3.3 4.3v14.3c1.2 1.2 2 3.2 2 5.4 0 3.9-2.4 7-5.3 7 3.8 0 6.9-3.1 6.9-7 0-2.2-1-4.2-2.6-5.4z"/>
    <path fill="#ffe100" d="m18.9 19.1l0.1-14.3c0-2.3-1.5-4.3-3.3-4.3-1.8 0-3.3 2-3.3 4.3v14.3c-1.2 1.2-2 3.2-2 5.4 0 3.9 2.4 7 5.3 7 3 0 5.4-3.1 5.4-7 0-2.2-0.9-4.2-2.2-5.4z"/>
    <path fill="#ffa800" d="m20 19.1v-14.3c0-2.3-1.9-4.3-4.3-4.3 1.8 0 3.2 2 3.2 4.3v14.3c1.3 1.3 2.2 3.2 2.2 5.4 0 3.9-2.4 7-5.4 7 3.9 0 7-3.1 7-7 0-2.2-1.1-4.2-2.7-5.4z"/>
    <path fill="#fff" d="m10.4 24.5c0-2.2 0.9-4.2 2.1-5.4v-14.3c0-2.3 0.5-4.3 3.2-4.3-2.3 0-4.2 2-4.2 4.3v14.3c-1.6 1.2-2.7 3.2-2.7 5.4 0 3.9 3.1 7 6.9 7-2.9 0-5.3-3.1-5.3-7z"/>
    <path fill="#dd3859" d="m15.7 29.3c-2.6 0-4.8-2.1-4.8-4.8 0-1.5 0.7-2.8 1.9-3.8l0.8-0.6v-12.1c0-1.2 1-2.1 2.1-2.1 1.2 0 2.2 0.9 2.2 2.1v12.1l0.8 0.6c1.1 1 1.8 2.3 1.8 3.8 0 2.7-2.1 4.8-4.8 4.8z"/>
    <path fill="#e4667f" d="m14.1 29.3c-2.6 0-3.2-5.9-3.2-4.8 0-1.5 0.7-2.8 1.9-3.8l0.8-0.6v-12.1c0-1.2 0.4-2.1 1.6-2.1 1.2 0 1.1 0.9 1.1 2.1v12.1l0.8 0.6c1.1 1 1.8 2.3 1.8 3.8 0 2.7-2.1 4.8-4.8 4.8z"/>
    <path d="m15.7 32c-4.1 0-7.4-3.4-7.4-7.5 0-2.2 0.9-4.2 2.6-5.7v-14c0-2.7 2.2-4.8 4.8-4.8 2.7 0 4.8 2.1 4.8 4.8v14c1.7 1.5 2.7 3.5 2.7 5.7 0 4.1-3.4 7.5-7.5 7.5zm0-30.9c-2 0-3.7 1.6-3.7 3.7v14.3c0 0.2-0.1 0.3-0.2 0.4-1.6 1.2-2.5 3.1-2.5 5 0 3.6 2.9 6.4 6.4 6.4 3.6 0 6.4-2.8 6.4-6.4 0-1.9-0.9-3.8-2.4-5-0.1-0.1-0.2-0.2-0.2-0.4v-14.3c0-2.1-1.7-3.7-3.8-3.7z"/>
    <path d="m15.7 29.9c-2.9 0-5.3-2.4-5.3-5.4 0-1.6 0.7-3.2 2-4.2l0.7-0.5v-11.8c0-1.5 1.1-2.7 2.6-2.7 1.5 0 2.7 1.2 2.7 2.7v11.8l0.6 0.5c1.3 1 2.1 2.6 2.1 4.2 0 3-2.4 5.4-5.4 5.4zm0-23.5c-0.9 0-1.6 0.7-1.6 1.6v12.1c0 0.2 0 0.3-0.2 0.4l-0.8 0.7c-1 0.8-1.6 2-1.6 3.3 0 2.4 1.9 4.3 4.2 4.3 2.4 0 4.3-1.9 4.3-4.3 0-1.3-0.6-2.5-1.7-3.3l-0.8-0.7c-0.1-0.1-0.2-0.2-0.2-0.4v-12.1c0-0.9-0.7-1.6-1.6-1.6z"/>
</svg>